# xmcd
#
# Track frame offsets: 
#        150
#        19994
#        36575
#        51852
#        70466
#        88473
#        109587
#        127534
#        141986
#        164689
#        186033
#
# Disc length: 2650 seconds
#
# Revision: 0
# Processed by: cddbd v1.5.2PL0 Copyright (c) Steve Scherf et al.
# Submitted via: ExactAudioCopy v1.3
#
DISCID=a20a580b
DTITLE=Jordan Officer - Three Rivers
DYEAR=2018
DGENRE=Blues
TTITLE0=Your Body's My Home
TTITLE1=Young Love
TTITLE2=One Handed Push-Ups
TTITLE3=Felt So Good
TTITLE4=Dream of You and Me
TTITLE5=Driving Back from Three Rivers
TTITLE6=Where Has This Come From
TTITLE7=Just to Be with You
TTITLE8=Found It All
TTITLE9=He's Got It All
TTITLE10=Buck Jumping in New Orleans
EXTD=
EXTT0=
EXTT1=
EXTT2=
EXTT3=
EXTT4=
EXTT5=
EXTT6=
EXTT7=
EXTT8=
EXTT9=
EXTT10=
PLAYORDER=
